<svg width="32" height="32" viewBox="0 0 32 32" fill="none" xmlns="http://www.w3.org/2000/svg">
<circle cx="16" cy="16" r="16" fill="#8970F2"/>
<path d="M16 13.9172C14.8531 13.9172 13.9171 14.8532 13.9171 16C13.9171 17.1469 14.8531 18.0829 16 18.0829C17.1468 18.0829 18.0828 17.1469 18.0828 16C18.0828 14.8532 17.1468 13.9172 16 13.9172ZM22.2468 16C22.2468 15.1375 22.2546 14.2829 22.2062 13.4219C22.1578 12.4219 21.9296 11.5344 21.1984 10.8032C20.4656 10.0704 19.5796 9.8438 18.5796 9.79536C17.7171 9.74692 16.8625 9.75474 16.0015 9.75474C15.139 9.75474 14.2843 9.74692 13.4234 9.79536C12.4234 9.8438 11.5359 10.0719 10.8046 10.8032C10.0718 11.536 9.84526 12.4219 9.79683 13.4219C9.74839 14.2844 9.7562 15.1391 9.7562 16C9.7562 16.861 9.74839 17.7172 9.79683 18.5782C9.84526 19.5782 10.0734 20.4657 10.8046 21.1969C11.5375 21.9297 12.4234 22.1563 13.4234 22.2047C14.2859 22.2532 15.1406 22.2454 16.0015 22.2454C16.864 22.2454 17.7187 22.2532 18.5796 22.2047C19.5796 22.1563 20.4671 21.9282 21.1984 21.1969C21.9312 20.4641 22.1578 19.5782 22.2062 18.5782C22.2562 17.7172 22.2468 16.8625 22.2468 16ZM16 19.2047C14.2265 19.2047 12.7953 17.7735 12.7953 16C12.7953 14.2266 14.2265 12.7954 16 12.7954C17.7734 12.7954 19.2046 14.2266 19.2046 16C19.2046 17.7735 17.7734 19.2047 16 19.2047ZM19.3359 13.4125C18.9218 13.4125 18.5875 13.0782 18.5875 12.6641C18.5875 12.25 18.9218 11.9157 19.3359 11.9157C19.75 11.9157 20.0843 12.25 20.0843 12.6641C20.0845 12.7624 20.0652 12.8598 20.0276 12.9507C19.99 13.0415 19.9349 13.1241 19.8654 13.1936C19.7959 13.2631 19.7133 13.3183 19.6225 13.3558C19.5316 13.3934 19.4342 13.4127 19.3359 13.4125Z" fill="white"/>
</svg>
