<svg width="105" height="105" viewBox="0 0 105 105" fill="none" xmlns="http://www.w3.org/2000/svg">
<path d="M29.0018 40.2476C29.7198 39.8712 30.2882 39.7459 30.7094 39.8696C31.1305 39.9959 31.3592 40.2743 31.3975 40.7064C31.4356 41.1388 31.2354 41.4931 30.797 41.7695C30.1016 42.1835 29.4246 42.8455 28.7626 43.7608C28.1012 44.6748 27.5685 45.5578 27.1665 46.4085C26.7629 47.2588 26.2421 48.3955 25.6069 49.8181C24.9703 51.2405 24.4687 52.3075 24.1028 53.017C22.8449 55.4276 21.1278 57.9097 18.9544 60.4611C16.7816 63.0141 14.5745 65.0585 12.3343 66.5953C13.698 66.554 15.0992 66.6226 16.5365 66.8004C17.9727 66.9772 22.7715 66.5821 35.9177 75.2835C45.2005 81.4283 55.4703 76.7714 57.0075 72.1654C57.9431 69.3574 59.0896 72.6971 58.7352 74.5225C58.5073 75.6988 58.1655 78.1347 56.1416 80.79C53.7856 83.8794 50.3804 86.1616 43.6379 86.3163C36.8957 86.472 35.612 83.0775 25.3918 76.6583C24.4525 76.0672 17.0119 71.7894 15.9303 71.3042C14.8504 70.8173 13.8919 70.3641 13.0562 69.9462C12.2221 69.5263 11.3467 69.2037 10.4325 68.9797C9.51669 68.7561 8.67035 68.7096 7.89483 68.8402C7.52361 68.9029 7.26719 68.9322 7.1279 68.9286C6.18231 69.0866 5.56527 68.9286 5.27511 68.4507C5.05277 68.0555 5.12688 67.6735 5.49711 67.2998C5.70522 67.0894 5.98645 66.9545 6.34079 66.8951C6.86355 66.8077 7.38762 66.6114 7.90872 66.3063C8.43148 66.0032 8.92247 65.6542 9.38534 65.259C9.84853 64.8632 10.3478 64.3276 10.8844 63.6507C11.4214 62.9739 11.8952 62.3372 12.3081 61.7415C12.719 61.1458 13.2167 60.3664 13.8 59.4059C14.3842 58.444 14.8723 57.6098 15.266 56.901C15.6577 56.1948 16.1762 55.2742 16.8174 54.1418C16.9891 53.8281 17.1274 53.586 17.2293 53.4138C17.3292 53.2413 17.4513 53.0193 17.5965 52.7439C17.7414 52.4708 17.8821 52.2214 18.0174 51.9942C19.3696 49.6219 21.5327 46.963 24.5085 44.0207C23.0739 44.3707 21.59 44.6563 20.0574 44.8803C18.5233 45.1053 17.1194 45.2837 15.8493 45.4163C14.5768 45.5499 13.3288 45.8167 12.103 46.2185C10.8778 46.6199 9.84655 47.1744 9.01213 47.8813C8.53834 48.2725 8.13701 48.6904 7.80384 49.137C7.471 49.584 7.26024 49.9042 7.17224 50.0942C7.08224 50.2852 6.9724 50.5669 6.84502 50.9373C6.76131 51.1554 6.69878 51.2998 6.65809 51.3747C6.61904 51.4479 6.55122 51.5043 6.45163 51.54C6.35469 51.5782 6.23327 51.5578 6.09067 51.4799C5.94608 51.4037 5.74625 51.2721 5.49016 51.0854C5.01571 50.7473 4.65574 50.2328 4.40892 49.546C4.16244 48.8586 4.13431 48.0752 4.3229 47.1929C4.51281 46.3115 4.97634 45.5384 5.71581 44.8744C6.48505 44.1912 7.3691 43.6107 8.36431 43.1324C9.35953 42.6545 10.36 42.3078 11.3658 42.0921C12.372 41.8741 13.437 41.7098 14.5646 41.593C15.6901 41.4779 16.776 41.4241 17.8182 41.4304C18.8611 41.4383 19.9115 41.4373 20.9706 41.4284C22.0267 41.4179 22.9991 41.407 23.8821 41.3925C24.7655 41.379 25.6036 41.3074 26.3973 41.1738C27.191 41.0405 27.8425 40.8347 28.3523 40.5606C28.4625 40.5012 28.6647 40.4128 28.9578 40.2964C28.9542 40.271 28.9664 40.2538 29.0018 40.2476Z" fill="white"/>
<path d="M40.2491 31.9049C40.3272 32.214 40.3626 34.9992 38.0499 35.5755C36.9815 35.8404 35.1999 35.7091 34.8518 34.3168C34.7641 33.9675 34.9259 31.2159 36.2609 30.883C37.5509 30.5628 39.95 30.7056 40.2491 31.9049ZM37.7448 43.0469C36.9471 46.6561 36.2728 51.1388 36.9309 53.769C37.0477 54.2331 37.2234 54.5586 37.5351 54.4814C40.0707 53.8511 38.9511 56.5532 37.2168 56.9853C34.4144 57.6816 31.8291 55.2846 31.444 52.4212C31.1145 50.1624 31.9853 38.7262 34.4773 38.1074C35.9893 37.731 38.4853 38.2611 38.7046 38.9462C38.7814 39.2553 38.2785 41.0239 37.7448 43.0469Z" fill="white"/>
<path d="M51.2132 41.9156C51.2456 41.2908 51.553 39.1188 51.9103 37.7149C51.7104 37.107 51.2638 36.6429 50.9081 36.7313C47.3048 37.6275 44.0839 45.9077 45.0328 49.6984C45.4874 51.5171 46.8502 51.6708 47.4278 51.527C48.4958 51.2612 50.3189 48.9173 51.2132 41.9156ZM57.914 35.6468C57.9623 35.8397 57.7651 36.7518 57.512 38.0065C57.2086 39.4384 56.8774 43.5886 56.1988 48.8111C54.4069 61.6656 51.0113 64.5241 46.0736 65.7524C41.8913 66.7924 39.3377 64.1405 38.9797 62.7089C38.6406 61.3555 38.4835 59.2161 40.0855 58.8177C40.2635 58.7738 40.4507 58.7685 40.6479 58.8015C41.4724 58.8846 41.0059 59.2884 41.5482 61.4538C41.7321 62.1891 42.38 62.8907 43.537 62.6034C46.7843 61.7949 48.7873 58.0917 49.8792 54.903C50.5313 52.9738 50.7973 51.9624 50.8572 50.8792C49.8269 52.6149 48.8853 53.3841 47.7726 53.6602C44.3472 54.5115 40.455 52.9332 39.4486 48.9094C38.0156 43.1848 43.7206 35.7668 47.8126 34.7489C50.0816 34.1842 51.7283 34.7192 52.7354 35.5376C52.9694 35.1504 53.2767 34.8693 53.5884 34.7912C55.1014 34.4151 57.6411 34.9336 57.9041 35.6072L57.914 35.6468Z" fill="white"/>
<path d="M70.9632 37.0076C70.9956 36.3829 71.3023 34.2108 71.6597 32.807C71.4608 32.1991 71.0138 31.735 70.6585 31.8234C67.0548 32.7196 63.8339 40.9991 64.7825 44.7904C65.2374 46.6075 66.5995 46.7632 67.1779 46.6191C68.2456 46.3532 70.0689 44.0093 70.9632 37.0076ZM77.6634 30.7388C77.712 30.9318 77.5148 31.8438 77.2621 33.0986C76.9583 34.5304 76.6265 38.6806 75.9489 43.9031C74.157 56.7576 70.7614 59.6161 65.8227 60.8445C61.6417 61.8845 59.0878 59.2325 58.7295 57.801C58.3907 56.4476 58.2328 54.3082 59.8348 53.9097C60.0132 53.8655 60.2008 53.8606 60.398 53.8936C61.2215 53.9767 60.756 54.3794 61.2976 56.5459C61.4815 57.2801 62.1297 57.983 63.2863 57.6954C66.5344 56.8869 68.537 53.1841 69.6292 49.9951C70.2807 48.0661 70.5473 47.0545 70.6069 45.9713C69.5759 47.7069 68.6343 48.4761 67.5223 48.7522C64.0976 49.6035 60.2047 48.0242 59.198 44.0014C57.765 38.2769 63.47 30.8589 67.5623 29.8403C69.8314 29.2763 71.478 29.8113 72.4855 30.6296C72.7197 30.2424 73.0268 29.9604 73.3381 29.8832C74.8508 29.5072 77.3908 30.0257 77.6538 30.6992L77.6634 30.7388Z" fill="white"/>
<path d="M87.5781 20.1338C87.6551 20.4429 87.6909 23.2281 85.3779 23.8034C84.3095 24.0692 82.5285 23.9366 82.1801 22.544C82.0925 22.1957 82.2546 19.4438 83.5896 19.1119C84.8799 18.7913 87.278 18.9345 87.5781 20.1338ZM85.0738 31.2758C84.2758 34.8843 83.6018 39.3663 84.2599 41.9975C84.3767 42.4619 84.552 42.7872 84.8637 42.7103C87.3994 42.0787 86.2798 44.7821 84.5454 45.2132C81.7424 45.9105 79.1574 43.5125 78.772 40.6501C78.4428 38.3896 79.3142 26.9551 81.8053 26.3356C83.3179 25.9589 85.8136 26.49 86.0326 27.1751C86.1097 27.4842 85.6068 29.2528 85.0738 31.2758Z" fill="white"/>
<path d="M98.1475 24.9824C94.8115 25.8123 92.5071 32.4661 92.4879 33.3342L92.7549 33.2683C93.5999 33.0575 96.8486 30.9349 98.1674 26.95C98.3527 26.3691 98.7705 24.8274 98.1475 24.9824ZM101.705 24.4672C102.789 28.7998 97.6019 34.3221 92.8518 35.5452L92.1402 35.7217L92.0551 35.9486C91.984 36.418 92.0981 37.2532 92.2725 37.9485C92.7271 39.7673 94.0002 39.9441 94.8896 39.7221C96.4913 39.3236 97.9533 38.1794 98.9489 36.4938C99.3823 35.7692 99.4418 35.6313 99.7532 35.5544C100.332 35.4103 101.277 35.7916 101.422 36.3718C101.955 38.499 97.058 41.4023 94.9683 41.9218C91.5416 42.7742 87.6498 41.1945 86.6433 37.1707C85.2104 31.4465 90.9593 24.0173 95.0524 22.9991C96.92 22.5343 101.172 22.34 101.705 24.4672Z" fill="white"/>
<path d="M42.2703 32.6931C41.5577 33.5382 38.9164 36.1018 38.5244 36.6021C38.1316 37.1048 37.0967 37.1309 36.526 36.5764C35.9549 36.0226 33.7786 33.9614 32.8505 32.9837C31.9234 32.006 32.779 29.9718 34.8135 29.9718C35.8841 29.9718 39.2066 29.986 40.2375 29.9992C42.4142 30.0249 42.985 31.8467 42.2703 32.6931Z" fill="white"/>
<path d="M89.162 20.5719C88.4493 21.417 85.8081 23.9806 85.416 24.4803C85.0229 24.9837 83.988 25.0094 83.4173 24.4546C82.8462 23.9011 80.6709 21.8402 79.7418 20.8625C78.8154 19.8845 79.6704 17.85 81.7048 17.85C82.7748 17.85 86.0972 17.8642 87.1288 17.8781C89.3059 17.9038 89.8763 19.7255 89.162 20.5719Z" fill="white"/>
</svg>
