<svg width="32" height="32" viewBox="0 0 32 32" fill="none" xmlns="http://www.w3.org/2000/svg">
<circle cx="16" cy="16" r="16" fill="#EE4A24"/>
<path d="M16 13.9172C14.8531 13.9172 13.9172 14.8532 13.9172 16C13.9172 17.1469 14.8531 18.0829 16 18.0829C17.1469 18.0829 18.0828 17.1469 18.0828 16C18.0828 14.8532 17.1469 13.9172 16 13.9172ZM22.2469 16C22.2469 15.1375 22.2547 14.2829 22.2063 13.4219C22.1578 12.4219 21.9297 11.5344 21.1985 10.8032C20.4656 10.0704 19.5797 9.8438 18.5797 9.79536C17.7172 9.74692 16.8625 9.75474 16.0016 9.75474C15.1391 9.75474 14.2844 9.74692 13.4235 9.79536C12.4235 9.8438 11.536 10.0719 10.8047 10.8032C10.0719 11.536 9.84533 12.4219 9.79689 13.4219C9.74845 14.2844 9.75626 15.1391 9.75626 16C9.75626 16.861 9.74845 17.7172 9.79689 18.5782C9.84533 19.5782 10.0735 20.4657 10.8047 21.1969C11.5375 21.9297 12.4235 22.1563 13.4235 22.2047C14.286 22.2532 15.1406 22.2454 16.0016 22.2454C16.8641 22.2454 17.7188 22.2532 18.5797 22.2047C19.5797 22.1563 20.4672 21.9282 21.1985 21.1969C21.9313 20.4641 22.1578 19.5782 22.2063 18.5782C22.2563 17.7172 22.2469 16.8625 22.2469 16ZM16 19.2047C14.2266 19.2047 12.7953 17.7735 12.7953 16C12.7953 14.2266 14.2266 12.7954 16 12.7954C17.7735 12.7954 19.2047 14.2266 19.2047 16C19.2047 17.7735 17.7735 19.2047 16 19.2047ZM19.336 13.4125C18.9219 13.4125 18.5875 13.0782 18.5875 12.6641C18.5875 12.25 18.9219 11.9157 19.336 11.9157C19.75 11.9157 20.0844 12.25 20.0844 12.6641C20.0845 12.7624 20.0652 12.8598 20.0277 12.9507C19.9901 13.0415 19.935 13.1241 19.8655 13.1936C19.7959 13.2631 19.7134 13.3183 19.6225 13.3558C19.5317 13.3934 19.4343 13.4127 19.336 13.4125Z" fill="white"/>
</svg>
