<svg width="63" height="63" viewBox="0 0 63 63" fill="none" xmlns="http://www.w3.org/2000/svg">
<path d="M17.4011 24.1485C17.8319 23.9227 18.173 23.8475 18.4257 23.9217C18.6784 23.9975 18.8155 24.1646 18.8386 24.4238C18.8614 24.6833 18.7413 24.8958 18.4783 25.0617C18.061 25.3101 17.6548 25.7073 17.2576 26.2565C16.8608 26.8049 16.5412 27.3347 16.3 27.8451C16.0578 28.3553 15.7453 29.0373 15.3642 29.8909C14.9822 30.7443 14.6813 31.3845 14.4617 31.8102C13.707 33.2565 12.6767 34.7458 11.3727 36.2766C10.069 37.8085 8.74474 39.0351 7.4006 39.9572C8.21888 39.9324 9.05958 39.9736 9.92193 40.0803C10.7837 40.1863 13.6629 39.9492 21.5507 45.1701C27.1204 48.857 33.2822 46.0629 34.2045 43.2993C34.7659 41.6145 35.4538 43.6183 35.2412 44.7135C35.1044 45.4193 34.8993 46.8808 33.685 48.474C32.2714 50.3276 30.2283 51.697 26.1828 51.7898C22.1375 51.8832 21.3672 49.8465 15.2352 45.995C14.6716 45.6403 10.2072 43.0736 9.55825 42.7825C8.9103 42.4904 8.33521 42.2185 7.83376 41.9677C7.33331 41.7158 6.80804 41.5222 6.25955 41.3878C5.71006 41.2537 5.20226 41.2258 4.73695 41.3041C4.51421 41.3417 4.36036 41.3593 4.27679 41.3572C3.70944 41.452 3.33921 41.3572 3.16511 41.0704C3.03171 40.8333 3.07618 40.6041 3.29832 40.3799C3.42318 40.2536 3.59192 40.1727 3.80453 40.1371C4.11818 40.0846 4.43262 39.9669 4.74528 39.7838C5.05893 39.6019 5.35353 39.3925 5.63125 39.1554C5.90917 38.9179 6.20873 38.5965 6.53072 38.1904C6.8529 37.7843 7.13718 37.4023 7.38492 37.0449C7.63148 36.6875 7.93004 36.2198 8.28002 35.6435C8.6306 35.0664 8.9234 34.5659 9.15963 34.1406C9.39468 33.7169 9.70575 33.1645 10.0905 32.4851C10.1935 32.2969 10.2765 32.1516 10.3376 32.0483C10.3976 31.9448 10.4708 31.8116 10.558 31.6463C10.6449 31.4825 10.7293 31.3329 10.8105 31.1965C11.6218 29.7731 12.9197 28.1778 14.7051 26.4124C13.8444 26.6224 12.954 26.7938 12.0345 26.9282C11.114 27.0632 10.2717 27.1702 9.50961 27.2498C8.74613 27.3299 7.99734 27.49 7.26184 27.7311C6.52675 27.972 5.90798 28.3046 5.40733 28.7288C5.12305 28.9635 4.88226 29.2142 4.68235 29.4822C4.48265 29.7504 4.3562 29.9425 4.30339 30.0565C4.2494 30.1711 4.18349 30.3401 4.10706 30.5624C4.05684 30.6932 4.01932 30.7799 3.9949 30.8248C3.97148 30.8688 3.93078 30.9026 3.87103 30.924C3.81286 30.9469 3.74001 30.9347 3.65445 30.888C3.5677 30.8422 3.4478 30.7633 3.29415 30.6513C3.00948 30.4484 2.79349 30.1397 2.6454 29.7276C2.49751 29.3152 2.48064 28.8451 2.59379 28.3157C2.70774 27.7869 2.98585 27.323 3.42953 26.9246C3.89108 26.5147 4.42151 26.1664 5.01864 25.8795C5.61577 25.5927 6.21607 25.3847 6.81955 25.2553C7.42323 25.1244 8.06225 25.0259 8.73879 24.9558C9.41413 24.8867 10.0657 24.8545 10.691 24.8582C11.3167 24.863 11.947 24.8624 12.5824 24.8571C13.2161 24.8507 13.7995 24.8442 14.3293 24.8355C14.8594 24.8274 15.3622 24.7844 15.8384 24.7043C16.3147 24.6243 16.7055 24.5008 17.0115 24.3364C17.0776 24.3007 17.1988 24.2477 17.3747 24.1778C17.3725 24.1626 17.3799 24.1523 17.4011 24.1485Z" fill="#EE4A24"/>
<path d="M24.1495 19.143C24.1964 19.3284 24.2176 20.9995 22.83 21.3453C22.189 21.5042 21.12 21.4254 20.9112 20.5901C20.8586 20.3805 20.9557 18.7295 21.7567 18.5298C22.5307 18.3377 23.9701 18.4234 24.1495 19.143ZM22.647 25.8281C22.1684 27.9937 21.7638 30.6833 22.1586 32.2614C22.2287 32.5398 22.3341 32.7352 22.5211 32.6889C24.0425 32.3107 23.3708 33.9319 22.3302 34.1912C20.6488 34.609 19.0976 33.1708 18.8665 31.4527C18.6688 30.0974 19.1913 23.2357 20.6865 22.8644C21.5937 22.6386 23.0913 22.9567 23.2229 23.3677C23.2689 23.5532 22.9672 24.6144 22.647 25.8281Z" fill="#EE4A24"/>
<path d="M30.7279 25.1493C30.7474 24.7745 30.9318 23.4712 31.1462 22.6289C31.0263 22.2642 30.7583 21.9857 30.5449 22.0388C28.3829 22.5765 26.4503 27.5446 27.0197 29.819C27.2924 30.9103 28.1101 31.0025 28.4567 30.9162C29.0975 30.7567 30.1913 29.3503 30.7279 25.1493ZM34.7484 21.3881C34.7774 21.5038 34.6591 22.051 34.5072 22.8039C34.3252 23.663 34.1265 26.1531 33.7193 29.2866C32.6442 36.9994 30.6068 38.7144 27.6442 39.4514C25.1348 40.0755 23.6027 38.4843 23.3879 37.6253C23.1844 36.8133 23.0901 35.5297 24.0513 35.2906C24.1581 35.2643 24.2705 35.2611 24.3888 35.2809C24.8835 35.3308 24.6036 35.573 24.9289 36.8723C25.0393 37.3134 25.428 37.7344 26.1222 37.562C28.0706 37.0769 29.2724 34.855 29.9275 32.9418C30.3188 31.7842 30.4784 31.1774 30.5143 30.5275C29.8961 31.5689 29.3312 32.0304 28.6636 32.1961C26.6084 32.7069 24.273 31.7599 23.6692 29.3456C22.8094 25.9109 26.2324 21.4601 28.6876 20.8493C30.049 20.5105 31.037 20.8315 31.6413 21.3225C31.7816 21.0902 31.966 20.9216 32.153 20.8747C33.0609 20.6491 34.5846 20.9602 34.7425 21.3643L34.7484 21.3881Z" fill="#EE4A24"/>
<path d="M42.5779 22.2046C42.5973 21.8297 42.7814 20.5265 42.9957 19.6842C42.8764 19.3194 42.6082 19.041 42.395 19.094C40.2328 19.6317 38.3003 24.5995 38.8694 26.8742C39.1424 27.9645 39.9597 28.0579 40.3067 27.9714C40.9473 27.8119 42.0413 26.4056 42.5779 22.2046ZM46.598 18.4433C46.6272 18.5591 46.5088 19.1063 46.3572 19.8591C46.1749 20.7183 45.9758 23.2084 45.5693 26.3419C44.4941 34.0546 42.4568 35.7697 39.4936 36.5067C36.9849 37.1307 35.4526 35.5395 35.2376 34.6806C35.0343 33.8686 34.9397 32.5849 35.9009 32.3458C36.0079 32.3193 36.1204 32.3163 36.2387 32.3361C36.7328 32.386 36.4535 32.6277 36.7785 33.9275C36.8889 34.3681 37.2778 34.7898 37.9718 34.6172C39.9206 34.1322 41.1222 31.9104 41.7775 29.997C42.1683 28.8397 42.3283 28.2327 42.3641 27.5828C41.7455 28.6242 41.1805 29.0857 40.5133 29.2513C38.4585 29.7621 36.1228 28.8145 35.5187 26.4008C34.659 22.9661 38.0819 18.5153 40.5374 17.9042C41.8988 17.5658 42.8868 17.8868 43.4912 18.3778C43.6318 18.1454 43.816 17.9762 44.0028 17.9299C44.9104 17.7043 46.4344 18.0154 46.5922 18.4195L46.598 18.4433Z" fill="#EE4A24"/>
<path d="M52.5468 12.0803C52.5931 12.2657 52.6145 13.9369 51.2267 14.282C50.5857 14.4415 49.5171 14.362 49.3081 13.5264C49.2555 13.3174 49.3528 11.6662 50.1538 11.4672C50.928 11.2748 52.3668 11.3607 52.5468 12.0803ZM51.0443 18.7655C50.5655 20.9306 50.1611 23.6198 50.5559 25.1985C50.626 25.4772 50.7312 25.6723 50.9182 25.6262C52.4396 25.2472 51.7679 26.8693 50.7273 27.1279C49.0455 27.5463 47.4945 26.1075 47.2632 24.39C47.0657 23.0338 47.5886 16.173 49.0832 15.8014C49.9908 15.5754 51.4882 15.894 51.6196 16.305C51.6658 16.4905 51.3641 17.5517 51.0443 18.7655Z" fill="#EE4A24"/>
<path d="M58.8886 14.9895C56.8869 15.4874 55.5043 19.4796 55.4928 20.0005L55.653 19.9609C56.16 19.8345 58.1092 18.5609 58.9005 16.17C59.0116 15.8215 59.2624 14.8964 58.8886 14.9895ZM61.0228 14.6803C61.6735 17.2799 58.5612 20.5933 55.7111 21.3271L55.2841 21.433L55.2331 21.5692C55.1904 21.8508 55.2589 22.3519 55.3636 22.7691C55.6363 23.8603 56.4002 23.9664 56.9338 23.8332C57.8948 23.5942 58.772 22.9076 59.3694 21.8963C59.6294 21.4615 59.6651 21.3788 59.8519 21.3326C60.1993 21.2462 60.7665 21.4749 60.8535 21.8231C61.1733 23.0994 58.2349 24.8414 56.981 25.1531C54.925 25.6645 52.5899 24.7167 51.986 22.3024C51.1263 18.8679 54.5757 14.4104 57.0315 13.7994C58.1521 13.5206 60.7034 13.404 61.0228 14.6803Z" fill="#EE4A24"/>
<path d="M25.3622 19.6158C24.9346 20.1229 23.3499 21.661 23.1147 21.9613C22.879 22.2629 22.2581 22.2785 21.9156 21.9458C21.573 21.6135 20.2672 20.3768 19.7104 19.7902C19.1541 19.2036 19.6675 17.9831 20.8881 17.9831C21.5305 17.9831 23.524 17.9916 24.1426 17.9995C25.4486 18.0149 25.791 19.108 25.3622 19.6158Z" fill="#EE4A24"/>
<path d="M53.4971 12.3431C53.0696 12.8502 51.4848 14.3883 51.2496 14.6882C51.0137 14.9902 50.3928 15.0056 50.0504 14.6727C49.7077 14.3406 48.4025 13.1041 47.8451 12.5175C47.2892 11.9307 47.8022 10.71 49.0229 10.71C49.6648 10.71 51.6583 10.7185 52.2773 10.7268C53.5835 10.7422 53.9257 11.8353 53.4971 12.3431Z" fill="#EE4A24"/>
</svg>
